<svg xmlns="http://www.w3.org/2000/svg" xmlns:xlink="http://www.w3.org/1999/xlink" width="689" height="518" viewBox="0 0 689 518">
  <defs>
    <filter id="Rectangle_1417" x="92" y="69" width="504" height="351" filterUnits="userSpaceOnUse">
      <feOffset dy="3" input="SourceAlpha"/>
      <feGaussianBlur stdDeviation="5" result="blur"/>
      <feFlood flood-opacity="0.051"/>
      <feComposite operator="in" in2="blur"/>
      <feComposite in="SourceGraphic"/>
    </filter>
    <filter id="Path_16415" x="491.278" y="257.113" width="146.881" height="172.68" filterUnits="userSpaceOnUse">
      <feOffset dx="6" dy="6" input="SourceAlpha"/>
      <feGaussianBlur result="blur-2"/>
      <feFlood flood-color="#0096ff"/>
      <feComposite operator="in" in2="blur-2"/>
      <feComposite in="SourceGraphic"/>
    </filter>
    <filter id="Ellipse_547" x="189" y="148" width="52" height="52" filterUnits="userSpaceOnUse">
      <feOffset dy="3" input="SourceAlpha"/>
      <feGaussianBlur stdDeviation="3" result="blur-3"/>
      <feFlood flood-opacity="0.051"/>
      <feComposite operator="in" in2="blur-3"/>
      <feComposite in="SourceGraphic"/>
    </filter>
    <clipPath id="clip-path">
      <path id="Path_15713" data-name="Path 15713" d="M19.215,14.307l3.5-2.557c.305-.249.538-.191.538.269v7.8c0,.517-.291.458-.538.269l-3.5-2.557ZM7.372,12.038v5.813A2.381,2.381,0,0,0,9.764,20.22h8.478a.433.433,0,0,0,.435-.431V13.976a2.381,2.381,0,0,0-2.391-2.368H7.807A.433.433,0,0,0,7.372,12.038Z" transform="translate(-7.372 -11.604)" fill="none"/>
    </clipPath>
  </defs>
  <g id="features-overview-vector" transform="translate(-998 -96)">
    <g id="add-on" style="isolation: isolate">
      <g id="_1" data-name="1" transform="translate(0.095 -60.282)">
        <g id="Ellipse_549" data-name="Ellipse 549" transform="translate(1631.699 310.306) rotate(51)" fill="#ffc800" stroke="#000" stroke-width="1">
          <ellipse cx="35.897" cy="35.897" rx="35.897" ry="35.897" stroke="none"/>
          <ellipse cx="35.897" cy="35.897" rx="35.397" ry="35.397" fill="none"/>
        </g>
        <ellipse id="Ellipse_562" data-name="Ellipse 562" cx="35.897" cy="35.897" rx="35.897" ry="35.897" transform="translate(1635.723 306.52) rotate(51)" fill="#fff"/>
        <g id="Group_10806" data-name="Group 10806" transform="translate(1633.896 325.441) rotate(51)">
          <path id="ticket" d="M19.844,0c-.4.4-2.346,2.347-2.745,2.746L.534,19.311a1.828,1.828,0,0,0,0,2.583l4.057,4.052a1.836,1.836,0,0,0,2.479.092,2.818,2.818,0,0,1,3.974,3.974,1.836,1.836,0,0,0,.092,2.479l4.052,4.052a1.828,1.828,0,0,0,2.583,0L34.336,19.979c.4-.4,2.346-2.347,2.746-2.745Z" transform="translate(0 8.017)" fill="#334052"/>
          <path id="ticket-2" data-name="ticket" d="M23.7,15.187l-4.052-4.052a1.836,1.836,0,0,0-2.479-.092A2.818,2.818,0,0,1,13.19,7.07,1.836,1.836,0,0,0,13.1,4.591L9.043.534a1.828,1.828,0,0,0-2.583,0L0,6.993,17.238,24.226l6.459-6.46a1.828,1.828,0,0,0,0-2.579Z" transform="translate(20.866 0)" fill="#0096ff"/>
          <path id="star" d="M9.31,11.035a.394.394,0,0,1-.231-.074l-3.168-2.3-3.168,2.3a.394.394,0,0,1-.6-.445l1.236-3.66-3.2-2.2a.394.394,0,0,1,.222-.719h3.95L5.536.273a.394.394,0,0,1,.75,0l1.192,3.67h3.95a.394.394,0,0,1,.223.719l-3.2,2.195,1.235,3.659a.394.394,0,0,1-.373.52Z" transform="matrix(0.891, 0.454, -0.454, 0.891, 17.068, 17.451)" fill="#fff"/>
        </g>
      </g>
      <g id="_2" data-name="2" transform="translate(2 -9)">
        <g id="Ellipse_551" data-name="Ellipse 551" transform="translate(1587 137)" fill="#0096ff" stroke="#000" stroke-width="1">
          <circle cx="47" cy="47" r="47" stroke="none"/>
          <circle cx="47" cy="47" r="46.5" fill="none"/>
        </g>
        <circle id="Ellipse_563" data-name="Ellipse 563" cx="47" cy="47" r="47" transform="translate(1591 133)" fill="#fff"/>
        <g id="Group_10870" data-name="Group 10870" transform="matrix(0.978, 0.208, -0.208, 0.978, 1618.425, 150)">
          <path id="calendar" d="M0,26.862a7.163,7.163,0,0,0,7.163,7.163H42.979a7.163,7.163,0,0,0,7.163-7.163V.336A.336.336,0,0,0,49.806,0H.336A.336.336,0,0,0,0,.336ZM38.5,3.582a2.686,2.686,0,1,1-2.686,2.686A2.686,2.686,0,0,1,38.5,3.582Zm0,8.954a2.686,2.686,0,1,1-2.686,2.686A2.686,2.686,0,0,1,38.5,12.535ZM29.548,3.582a2.686,2.686,0,1,1-2.686,2.686A2.686,2.686,0,0,1,29.548,3.582Zm0,8.954a2.686,2.686,0,1,1-2.686,2.686A2.686,2.686,0,0,1,29.548,12.535Zm0,8.954a2.686,2.686,0,1,1-2.686,2.686A2.686,2.686,0,0,1,29.548,21.489Zm-8.954-8.954a2.686,2.686,0,1,1-2.686,2.686A2.686,2.686,0,0,1,20.594,12.535Zm0,8.954a2.686,2.686,0,1,1-2.686,2.686A2.686,2.686,0,0,1,20.594,21.489ZM11.64,12.535a2.686,2.686,0,1,1-2.686,2.686A2.686,2.686,0,0,1,11.64,12.535Zm0,8.954a2.686,2.686,0,1,1-2.686,2.686A2.686,2.686,0,0,1,11.64,21.489Z" transform="translate(0 16.117)" fill="#334052"/>
          <path id="calendar-2" data-name="calendar" d="M50.142,10.744a7.163,7.163,0,0,0-7.163-7.163H41.188V1.841A1.826,1.826,0,0,0,39.483,0a1.791,1.791,0,0,0-1.877,1.789V3.581H12.535V1.841A1.826,1.826,0,0,0,10.831,0,1.791,1.791,0,0,0,8.954,1.791V3.581H7.163A7.163,7.163,0,0,0,0,10.744v1.343a.448.448,0,0,0,.448.448H49.694a.448.448,0,0,0,.448-.448Z" transform="translate(0 0)" fill="#0096ff"/>
        </g>
      </g>
      <g id="_3" data-name="3">
        <g id="Ellipse_567" data-name="Ellipse 567" transform="translate(1307 100)" fill="#ffc800" stroke="#000" stroke-width="1">
          <circle cx="34.5" cy="34.5" r="34.5" stroke="none"/>
          <circle cx="34.5" cy="34.5" r="34" fill="none"/>
        </g>
        <circle id="Ellipse_566" data-name="Ellipse 566" cx="34.5" cy="34.5" r="34.5" transform="translate(1311 96)" fill="#fff"/>
        <g id="Group_10809" data-name="Group 10809" transform="matrix(0.875, 0.485, -0.485, 0.875, 933.044, -1175.088)">
          <path id="notifications" d="M88.155,97.267a6.44,6.44,0,0,0,5.666-3.389.322.322,0,0,0-.285-.472H82.775a.322.322,0,0,0-.286.472A6.44,6.44,0,0,0,88.155,97.267Z" transform="translate(905.495 863.777)" fill="#0096ff"/>
          <path id="notifications-2" data-name="notifications" d="M94.1,56.881c-.134-.161-.265-.322-.393-.477-1.77-2.141-2.84-3.432-2.84-9.492a12.289,12.289,0,0,0-2.23-7.642,10.5,10.5,0,0,0-4.509-3.308.241.241,0,0,1-.066-.054,4.864,4.864,0,0,0-9.538,0,.252.252,0,0,1-.065.052c-4.535,1.867-6.739,5.449-6.739,10.951,0,6.062-1.069,7.354-2.84,9.492-.129.155-.26.313-.393.477a2.828,2.828,0,0,0-.374,3.026A3.007,3.007,0,0,0,66.874,61.6H91.721a3,3,0,0,0,2.75-1.689,2.829,2.829,0,0,0-.371-3.029Z" transform="translate(914.357 893.006)" fill="#334052"/>
          <path id="Path_5808" data-name="Path 5808" d="M97.7,62.921a19.736,19.736,0,0,0-5.34-11.4.915.915,0,1,0-1.324,1.263,17.89,17.89,0,0,1,4.85,10.335.913.913,0,0,0,.9.816c.033,0,.071-.006.1-.006a.916.916,0,0,0,.807-1.011Z" transform="translate(915.356 871.314)" fill="#0096ff" fill-rule="evenodd"/>
          <path id="Path_5809" data-name="Path 5809" d="M90.039,65.651a.917.917,0,0,0,.909.811.7.7,0,0,0,.1-.006.914.914,0,0,0,.805-1.013,16.082,16.082,0,0,0-4.349-9.268.915.915,0,0,0-1.324,1.263A14.194,14.194,0,0,1,90.039,65.651Z" transform="translate(917.567 869.192)" fill="#0096ff" fill-rule="evenodd"/>
          <path id="Path_5810" data-name="Path 5810" d="M38.382,51.5a.912.912,0,0,0-1.29.027,19.744,19.744,0,0,0-5.347,11.4.919.919,0,0,0,.805,1.013c.037,0,.071.006.1.006a.919.919,0,0,0,.909-.816A17.917,17.917,0,0,1,38.408,52.79a.912.912,0,0,0-.027-1.29Z" transform="translate(942.26 871.312)" fill="#0096ff" fill-rule="evenodd"/>
          <path id="Path_5811" data-name="Path 5811" d="M39.229,66.456a.625.625,0,0,0,.1.006.912.912,0,0,0,.9-.811,14.228,14.228,0,0,1,3.854-8.214.915.915,0,1,0-1.324-1.263,16.04,16.04,0,0,0-4.344,9.275.908.908,0,0,0,.805,1.007Z" transform="translate(939.218 869.194)" fill="#0096ff" fill-rule="evenodd"/>
        </g>
      </g>
      <g id="_4" data-name="4" transform="translate(-7)">
        <g id="Ellipse_552" data-name="Ellipse 552" transform="translate(1009 144)" fill="#0096ff" stroke="#000" stroke-width="1">
          <circle cx="46" cy="46" r="46" stroke="none"/>
          <circle cx="46" cy="46" r="45.5" fill="none"/>
        </g>
        <circle id="Ellipse_564" data-name="Ellipse 564" cx="46" cy="46" r="46" transform="translate(1005 140)" fill="#fff"/>
        <g id="Group_2108" data-name="Group 2108" transform="translate(1024.682 158.526) rotate(10)">
          <path id="Path_6169" data-name="Path 6169" d="M8.388,36a1.576,1.576,0,0,1-1.118-.463A24.786,24.786,0,0,1,7.27.466,1.581,1.581,0,0,1,9.511,2.7,21.291,21.291,0,0,0,3.164,18,20.944,20.944,0,0,0,9.509,33.3,1.581,1.581,0,0,1,8.391,36Z" transform="translate(6.219 4.342)" fill="#0096ff"/>
          <path id="Path_6170" data-name="Path 6170" d="M1.581,36a1.581,1.581,0,0,1-1.12-2.7A21.291,21.291,0,0,0,6.808,18,20.945,20.945,0,0,0,.463,2.7,1.581,1.581,0,0,1,2.7.463,24.786,24.786,0,0,1,9.969,18,24.786,24.786,0,0,1,2.7,35.536,1.576,1.576,0,0,1,1.581,36Z" transform="translate(45.867 4.341)" fill="#0096ff"/>
          <path id="Path_6171" data-name="Path 6171" d="M10.265,44.686a1.576,1.576,0,0,1-1.118-.463,30.742,30.742,0,0,1,0-43.76A1.581,1.581,0,0,1,11.383,2.7a27.58,27.58,0,0,0,0,39.289,1.581,1.581,0,0,1-1.118,2.7Z" transform="translate(0 0)" fill="#0096ff"/>
          <path id="Path_6172" data-name="Path 6172" d="M1.581,44.687a1.581,1.581,0,0,1-1.118-2.7A27.58,27.58,0,0,0,8.685,22.344,27.58,27.58,0,0,0,.463,2.7,1.581,1.581,0,0,1,2.7.463a30.742,30.742,0,0,1,9.147,21.88A30.741,30.741,0,0,1,2.7,44.223,1.576,1.576,0,0,1,1.581,44.687Z" transform="translate(50.209 0.021)" fill="#0096ff"/>
          <path id="play-circle" d="M17.33,0A17.33,17.33,0,1,0,34.66,17.33,17.35,17.35,0,0,0,17.33,0Zm6.23,18.105-9.536,5.761a.9.9,0,0,1-1.36-.776V11.57a.9.9,0,0,1,1.36-.776l9.536,5.761a.907.907,0,0,1,0,1.55Z" transform="translate(13.864 5.199)" fill="#334052"/>
        </g>
      </g>
      <g id="_5" data-name="5">
        <g id="Ellipse_553" data-name="Ellipse 553" transform="translate(1030 325)" fill="#ffc800" stroke="#000" stroke-width="1">
          <circle cx="33" cy="33" r="33" stroke="none"/>
          <circle cx="33" cy="33" r="32.5" fill="none"/>
        </g>
        <circle id="Ellipse_565" data-name="Ellipse 565" cx="33" cy="33" r="33" transform="translate(1026 321)" fill="#fff"/>
        <g id="location" transform="matrix(0.978, -0.208, 0.208, 0.978, 940.451, 326.888)">
          <ellipse id="Ellipse_538" data-name="Ellipse 538" cx="3.855" cy="3.58" rx="3.855" ry="3.58" transform="translate(105.94 42.211)" fill="#0096ff"/>
          <path id="Path_15844" data-name="Path 15844" d="M109.8,32C102.189,32,96,37.919,96,45.192c0,3.463,1.579,8.069,4.692,13.69a101.156,101.156,0,0,0,6.9,10.624,2.737,2.737,0,0,0,4.416,0,101.576,101.576,0,0,0,6.9-10.624c3.108-5.619,4.687-10.225,4.687-13.69C123.59,37.919,117.4,32,109.8,32Zm0,19.313a5.518,5.518,0,1,1,5.518-5.518A5.518,5.518,0,0,1,109.8,51.313Z" fill="#334052"/>
        </g>
      </g>
      <g id="_6" data-name="6">
        <g id="Ellipse_561" data-name="Ellipse 561" transform="translate(1348 514)" fill="#0096ff" stroke="#000" stroke-width="1">
          <circle cx="50" cy="50" r="50" stroke="none"/>
          <circle cx="50" cy="50" r="49.5" fill="none"/>
        </g>
        <circle id="Ellipse_548" data-name="Ellipse 548" cx="49.5" cy="49.5" r="49.5" transform="translate(1345 510)" fill="#fff"/>
        <g id="mail-unread" transform="translate(1368.553 533) rotate(7)">
          <path id="Path_15842" data-name="Path 15842" d="M15.855,7.935A7.93,7.93,0,0,0,1.112,3.88v.007c-.067.111-.13.225-.192.339l-.03.061c-.052.1-.1.2-.147.3-.015.031-.028.062-.042.093-.041.09-.081.182-.118.275-.016.038-.031.077-.046.115-.033.087-.066.173-.1.261L.4,5.46c-.027.084-.053.17-.078.255-.015.048-.028.1-.041.144-.024.083-.043.167-.063.248-.012.051-.025.1-.036.152-.017.084-.033.17-.048.248-.01.052-.02.1-.028.156-.014.087-.025.175-.036.262-.006.051-.014.1-.02.154-.01.1-.016.191-.024.287,0,.045-.007.089-.01.134C0,7.64,0,7.781,0,7.925c0,.124,0,.248.01.364v.079q.01.175.026.349l.007.059c.011.105.024.209.04.312a.164.164,0,0,0,.009.064c.017.113.038.224.061.335a.462.462,0,0,0,.016.08c.022.106.047.213.074.318v.024c.028.11.059.218.093.326l.026.084c.033.105.068.208.105.311.008.022.016.045.025.067.033.088.068.176.1.262.01.026.02.051.031.076.042.1.085.2.131.292l.041.083c.043.087.087.173.133.259a7.965,7.965,0,0,0,2.741,2.948,7.7,7.7,0,0,0,.943.514l.048.022q.329.149.672.267l.118.04.186.058c.056.017.111.032.168.048l.238.062.214.05.142.028.227.041.116.019c.111.016.224.031.337.043l.1.009c.09.007.182.015.274.02l.106.006c.124,0,.24.01.361.01.144,0,.285,0,.426-.012l.134-.01c.1-.007.192-.014.287-.024l.155-.02c.087-.011.175-.022.261-.036l.156-.028c.084-.015.17-.031.248-.048l.152-.036c.084-.02.168-.04.248-.063.048-.012.1-.026.144-.041.085-.025.171-.051.255-.078l.131-.045c.088-.031.174-.063.261-.1l.115-.046c.093-.037.184-.077.275-.118l.093-.042c.1-.047.2-.1.3-.147l.061-.03c.114-.062.228-.124.339-.192h.007a7.987,7.987,0,0,0,1.911-1.567A7.9,7.9,0,0,0,15.855,7.935Z" transform="translate(41.588 0)" fill="#0096ff"/>
          <path id="Path_15843" data-name="Path 15843" d="M42.015,15.169,28.947,25.333a1.981,1.981,0,0,1-2.431,0L8.688,11.468A1.981,1.981,0,1,1,11.12,8.34L27.731,21.26,39.4,12.188A11.868,11.868,0,0,1,39.221,0H6.933A6.94,6.94,0,0,0,0,6.933V36.645a6.94,6.94,0,0,0,6.933,6.933h41.6a6.94,6.94,0,0,0,6.933-6.933v-20.4A11.866,11.866,0,0,1,42.015,15.169Z" transform="translate(0 1.986)" fill="#334052"/>
        </g>
      </g>
    </g>
    <g id="event" transform="translate(961.39 129.29)">
      <g id="freepik--Plant--inject-4" opacity="0.16">
        <path id="Path_16497" data-name="Path 16497" d="M148,391c7.82,2.73,18,.29,24.73-4.6s11.51-11.89,15.78-19c1.82-3,3.6-6.19,4.18-9.68s-.28-7.42-3-9.7c-4.21-3.54-10.66-1.74-15.43,1A53.22,53.22,0,0,0,148,391" fill="#0096ff"/>
        <path id="Path_16498" data-name="Path 16498" d="M156.38,409.7c4.7,6.2,12.77,9,20.55,9.32s15.45-1.78,22.71-4.57c2.64-1,5.52-2.4,6.43-5.07a6.46,6.46,0,0,0-1.38-6,13.31,13.31,0,0,0-5.24-3.57c-7.15-3.05-15.35-3.19-22.87-1.24s-14.1,6.31-20.2,11.12" fill="#0096ff"/>
        <path id="Path_16499" data-name="Path 16499" d="M147.86,357.44c6.48.13,11.38-5.54,14.32-11.32A42,42,0,0,0,166,320c-.6-3.31-1.85-6.88-4.81-8.48s-6.93-.55-9.45,1.76-3.91,5.59-4.92,8.86c-3.48,11.25-2.73,24.18,1,35.35" fill="#0096ff"/>
        <path id="Path_16500" data-name="Path 16500" d="M126.58,393.28c11-18.8,12.89-41.81,6.36-62.61-1.06-3.38-3.05-7.24-6.58-7.46-3.91-.25-6.36,4.11-7.44,7.87-3.79,13.22-3,27.25-2.15,41,.52,8.45,3.42,15.67,9.81,21.23" fill="#0096ff"/>
        <path id="Path_16501" data-name="Path 16501" d="M115.09,401a45.16,45.16,0,0,0-26.8-28.43c-2.94-1.1-6.66-1.73-8.85.51S78,379,79.33,381.72c2.22,4.44,5.83,8,9.43,11.43,3.27,3.12,6.67,6.24,10.81,8.05s11.74,2.27,15.52-.19" fill="#0096ff"/>
        <path id="Path_16502" data-name="Path 16502" d="M183.58,352.71a.881.881,0,0,1-.19.17l-.6.46-2.32,1.73-1.67,1.24c-.61.47-1.24,1-1.93,1.57-1.37,1.14-3,2.37-4.61,3.92l-2.6,2.37c-.91.83-1.77,1.76-2.71,2.69-1.9,1.82-3.74,4-5.72,6.16A121.829,121.829,0,0,0,141,405.68c-1.09,2.76-2.17,5.36-3,7.88-.41,1.25-.86,2.45-1.19,3.62s-.65,2.31-1,3.39c-.65,2.15-1,4.14-1.44,5.87-.19.87-.39,1.68-.54,2.43l-.36,2.05q-.33,1.81-.51,2.85l-.15.74a1.232,1.232,0,0,1-.07.25,1,1,0,0,1,0-.26,7.063,7.063,0,0,1,.09-.75c.1-.69.24-1.65.42-2.86.09-.62.2-1.32.31-2.07s.33-1.56.5-2.44c.39-1.74.74-3.75,1.38-5.91l.92-3.4c.33-1.19.77-2.39,1.17-3.65.77-2.53,1.85-5.15,2.92-7.92a132.079,132.079,0,0,1,8.8-17.23,130.517,130.517,0,0,1,11.47-15.56c2-2.21,3.86-4.34,5.78-6.16,1-.92,1.83-1.85,2.74-2.67l2.64-2.35c1.64-1.54,3.28-2.75,4.67-3.88.7-.55,1.34-1.08,1.95-1.53l1.71-1.21,2.38-1.65.63-.42C183.5,352.75,183.57,352.7,183.58,352.71Z" fill="#263238"/>
        <path id="Path_16503" data-name="Path 16503" d="M198.21,404.82a3.491,3.491,0,0,1-.76-.12c-.5-.09-1.21-.28-2.15-.44a59.33,59.33,0,0,0-60.3,25.1c-.55.78-.92,1.42-1.2,1.83a4,4,0,0,1-.45.63,5.261,5.261,0,0,1,.36-.68c.25-.43.6-1.09,1.12-1.89a53.894,53.894,0,0,1,4.84-6.49,57.38,57.38,0,0,1,47.68-19.84,52.871,52.871,0,0,1,8,1.14c.93.19,1.65.41,2.13.53a7.149,7.149,0,0,1,.73.23Z" fill="#263238"/>
        <path id="Path_16504" data-name="Path 16504" d="M157.41,319a1.578,1.578,0,0,1,0,.29c-.05.22-.11.5-.18.85-.17.77-.42,1.86-.72,3.23-.64,2.81-1.61,6.86-2.83,11.87-2.43,10-6,23.79-9.65,39.06-1.84,7.64-3.49,14.94-4.92,21.59s-2.6,12.67-3.49,17.74c-.47,2.53-.83,4.83-1.17,6.85s-.62,3.75-.83,5.18-.38,2.49-.5,3.27l-.15.86a1.24,1.24,0,0,1-.07.28,1.27,1.27,0,0,1,0-.29c0-.22.05-.51.09-.86.1-.79.24-1.89.41-3.29s.42-3.18.74-5.2.65-4.32,1.1-6.86c.84-5.08,2-11.11,3.38-17.78s3.05-14,4.88-21.61c3.68-15.28,7.28-29.05,9.8-39,1.26-5,2.27-9,3-11.83.35-1.36.62-2.44.82-3.21.09-.34.17-.61.23-.83a1.091,1.091,0,0,1,.06-.31Z" fill="#263238"/>
        <path id="Path_16505" data-name="Path 16505" d="M132.05,428.54a.675.675,0,0,0-.07-.23,4.311,4.311,0,0,1-.16-.68q-.19-1-.54-2.61c-.47-2.28-1.09-5.58-1.8-9.67-1.42-8.18-3.09-19.54-4.13-32.17-.5-6.32-.78-12.35-.9-17.84s0-10.44.13-14.59c0-2.07.19-3.95.28-5.6s.2-3.06.3-4.21.19-2,.25-2.67l.08-.69a.89.89,0,0,1,0-.23.871.871,0,0,1,0,.24c0,.19,0,.41,0,.69,0,.66-.08,1.55-.14,2.67s-.16,2.57-.22,4.22-.18,3.52-.2,5.59c-.13,4.15-.14,9.09,0,14.57s.44,11.5.94,17.81c1,12.61,2.65,24,4,32.15.67,4.1,1.23,7.41,1.64,9.69.18,1.11.33,2,.44,2.64l.11.68a2.178,2.178,0,0,1-.01.24Z" fill="#263238"/>
        <path id="Path_16506" data-name="Path 16506" d="M132.86,430.93a6.46,6.46,0,0,1-.29-.65l-.72-1.89-.52-1.37c-.22-.49-.46-1-.71-1.59s-.53-1.18-.81-1.82-.66-1.3-1-2l-1.12-2.19c-.44-.74-.88-1.51-1.35-2.31-.88-1.62-2-3.23-3.14-5a117.005,117.005,0,0,0-8.32-10.64,130.2,130.2,0,0,0-9.55-9.55c-1.58-1.34-3-2.68-4.51-3.81l-2.09-1.66-2-1.47c-1.26-.95-2.43-1.74-3.47-2.44s-1.93-1.3-2.68-1.75l-1.71-1.09a3,3,0,0,1-.58-.41,5.293,5.293,0,0,1,.63.32l1.77,1c.77.43,1.68,1,2.73,1.69s2.25,1.45,3.52,2.39l2,1.44,2.12,1.65c1.49,1.11,3,2.44,4.56,3.78a123.514,123.514,0,0,1,9.62,9.57,111.728,111.728,0,0,1,8.33,10.71c1.1,1.77,2.24,3.4,3.12,5q.67,1.22,1.32,2.34l1.1,2.22c.34.71.7,1.37,1,2s.53,1.27.78,1.85l.67,1.61c.17.5.33,1,.48,1.39l.63,1.93a3.319,3.319,0,0,1,.19.75Z" fill="#263238"/>
        <path id="Path_16507" data-name="Path 16507" d="M179.48,374.51a32.389,32.389,0,0,1-3.49.21,65.377,65.377,0,0,0-8.34,1,66.214,66.214,0,0,0-8.13,2.11,34.1,34.1,0,0,1-3.32,1.1,3,3,0,0,1,.83-.45c.55-.27,1.36-.61,2.37-1a50.824,50.824,0,0,1,8.16-2.29,49.623,49.623,0,0,1,8.42-.86h2.56a3.779,3.779,0,0,1,.94.18Z" fill="#263238"/>
        <path id="Path_16508" data-name="Path 16508" d="M187.81,415.22a25.25,25.25,0,0,0-11.05-11.9,7.331,7.331,0,0,1,2.25,1,19.8,19.8,0,0,1,8,8.59A7.4,7.4,0,0,1,187.81,415.22Z" fill="#263238"/>
        <path id="Path_16509" data-name="Path 16509" d="M159.4,334.24c.1.11-1.93,2.13-4.15,4.86s-3.8,5.12-3.93,5a23,23,0,0,1,3.53-5.37,22.471,22.471,0,0,1,4.55-4.49Z" fill="#263238"/>
        <path id="Path_16510" data-name="Path 16510" d="M152.72,322.72a18.29,18.29,0,0,1,1,4.36,19,19,0,0,1,.49,4.44,39.47,39.47,0,0,1-1.5-8.8Z" fill="#263238"/>
        <path id="Path_16511" data-name="Path 16511" d="M132.06,358.88a53.919,53.919,0,0,1-3.23,6.81,54.477,54.477,0,0,1-3.7,6.56,55,55,0,0,1,3.23-6.8,56.16,56.16,0,0,1,3.7-6.57Z" fill="#263238"/>
        <path id="Path_16512" data-name="Path 16512" d="M119.76,346.61a29.848,29.848,0,0,1,2.74,4.92,29.87,29.87,0,0,1,2.27,5.15,31.692,31.692,0,0,1-2.74-4.92,30.84,30.84,0,0,1-2.27-5.15Z" fill="#263238"/>
        <path id="Path_16513" data-name="Path 16513" d="M101.68,388.6c0,.15-2.22-.28-5-.47s-5-.08-5-.24a14.51,14.51,0,0,1,5-.28,14.381,14.381,0,0,1,5,.99Z" fill="#263238"/>
        <path id="Path_16514" data-name="Path 16514" d="M114,425.73l6.15,32.34a4.52,4.52,0,0,0,4.45,3.68h18.2a4.52,4.52,0,0,0,4.47-3.79l5.35-32.23Z" fill="#263238"/>
        <path id="Path_16515" data-name="Path 16515" d="M116.03,436.24h34.74l1.85-10.51H114.03Z" fill="#455a64"/>
        <path id="Path_16516" data-name="Path 16516" d="M116.03,436.24l.73,3.83h33.48l.53-3.83Z" fill="#fafafa"/>
      </g>
      <g id="freepik--Calendar--inject-4" transform="translate(-54.2 -22.766)">
        <g transform="matrix(1, 0, 0, 1, 90.81, -10.52)" filter="url(#Rectangle_1417)">
          <rect id="Rectangle_1417-2" data-name="Rectangle 1417" width="474" height="321" rx="6" transform="translate(107 81)" fill="#fff"/>
        </g>
        <line id="Line_243" data-name="Line 243" x2="474" transform="translate(198.31 95.976)" fill="none" stroke="#f2f4f8" stroke-width="2"/>
        <path id="Path_16363" data-name="Path 16363" d="M210.614,80.157a2.7,2.7,0,1,1-.792-1.925,2.717,2.717,0,0,1,.792,1.925Z" transform="translate(2.532 3.089)" fill="#263238"/>
        <path id="Path_16364" data-name="Path 16364" d="M218.214,80.157a2.7,2.7,0,1,1-.792-1.925,2.717,2.717,0,0,1,.792,1.925Z" transform="translate(4.719 3.089)" fill="#263238"/>
        <path id="Path_16365" data-name="Path 16365" d="M225.834,80.157a2.7,2.7,0,1,1-.787-1.92,2.717,2.717,0,0,1,.787,1.92Z" transform="translate(6.911 3.089)" fill="#263238"/>
        <rect id="Rectangle_1416" data-name="Rectangle 1416" width="100" height="8" rx="4" transform="translate(384.81 111.476)" fill="#f2f4f8"/>
        <path id="Path_16366" data-name="Path 16366" d="M639.2,344.12c0-2.022-.09-86.432-.245-224.76l.245.245-424.2.09h0l.348-.335V344.12l-.322-.322,424.241.322-424.241.309h-.309V119h.373l424.2.077h.258v.258C639.3,257.688,639.209,342.1,639.2,344.12Z" transform="translate(5.274 14.047)" fill="#f2f4f8"/>
        <path id="Path_16367" data-name="Path 16367" d="M255.492,343.677c-.193,0-.193-50.311,0-112.367s.476-112.38.657-112.38.193,50.311,0,112.38S255.673,343.677,255.492,343.677Z" transform="translate(16.966 14.027)" fill="#f2f4f8"/>
        <path id="Path_16368" data-name="Path 16368" d="M304.36,343.817c-.18,0-.18-50.311,0-112.367s.476-112.38.657-112.38.193,50.311,0,112.38S304.553,343.817,304.36,343.817Z" transform="translate(31.03 14.067)" fill="#f2f4f8"/>
        <path id="Path_16369" data-name="Path 16369" d="M353.242,343.97c-.193,0-.193-50.324,0-112.38s.476-112.38.657-112.38.193,50.311,0,112.38S353.423,343.97,353.242,343.97Z" transform="translate(45.092 14.107)" fill="#f2f4f8"/>
        <path id="Path_16370" data-name="Path 16370" d="M402.11,344.11c-.18,0-.18-50.324,0-112.38s.476-112.38.657-112.38.193,50.311,0,112.393S402.3,344.11,402.11,344.11Z" transform="translate(59.155 14.147)" fill="#f2f4f8"/>
        <path id="Path_16371" data-name="Path 16371" d="M451.032,344.217c-.193,0-.193-50.311,0-112.367s.476-112.38.657-112.38.193,50.3,0,112.38S451.161,344.217,451.032,344.217Z" transform="translate(73.228 14.182)" fill="#f2f4f8"/>
        <path id="Path_16372" data-name="Path 16372" d="M499.86,344.387c-.18,0-.18-50.311,0-112.367s.476-112.38.657-112.38.193,50.3,0,112.38S500.079,344.387,499.86,344.387Z" transform="translate(87.28 14.231)" fill="#f2f4f8"/>
        <path id="Path_16373" data-name="Path 16373" d="M639.029,161.555c0,.18-94.854.335-211.857.335s-211.882-.155-211.882-.335,94.854-.335,211.882-.335S639.029,161.362,639.029,161.555Z" transform="translate(5.441 26.194)" fill="#f2f4f8"/>
        <path id="Path_16374" data-name="Path 16374" d="M639.029,206.275c0,.18-94.854.335-211.857.335s-211.882-.155-211.882-.335,94.854-.335,211.882-.335S639.029,206.082,639.029,206.275Z" transform="translate(5.441 39.062)" fill="#f2f4f8"/>
        <path id="Path_16375" data-name="Path 16375" d="M639.029,250.985c0,.193-94.854.335-211.857.335s-211.882-.142-211.882-.335,94.854-.335,211.882-.335S639.029,250.8,639.029,250.985Z" transform="translate(5.441 51.926)" fill="#f2f4f8"/>
        <path id="Path_16376" data-name="Path 16376" d="M218.7,254.89s-5.022,32.605.206,52.926l50.221-1.829s-10.3-32.438-3.773-48.65Z" transform="translate(5.796 53.146)"/>
        <path id="Path_16377" data-name="Path 16377" d="M218.37,254s.335,40.061,2.369,52.282l50.221-2.382s-4.417-39.379-2.717-49.9Z" transform="translate(6.327 52.89)" fill="#f2f4f8"/>
        <path id="Path_16378" data-name="Path 16378" d="M258.773,267.009c0,.193-7.533.8-16.843,1.352s-16.856.863-16.869.682,7.52-.785,16.831-1.352S258.76,266.867,258.773,267.009Z" transform="translate(8.252 56.622)"/>
        <path id="Path_16379" data-name="Path 16379" d="M258.783,273.632c0,.193-7.533.8-16.843,1.352s-16.856.863-16.869.682,7.52-.786,16.831-1.352S258.77,273.452,258.783,273.632Z" transform="translate(8.255 58.523)"/>
        <path id="Path_16380" data-name="Path 16380" d="M248.913,280.116a12.106,12.106,0,0,1-2.807.412c-1.726.167-4.134.348-6.786.5s-5.048.27-6.786.309a11.589,11.589,0,0,1-2.833-.064,12.065,12.065,0,0,1,2.794-.412c1.738-.155,4.134-.335,6.786-.5s5.061-.27,6.8-.309a12.673,12.673,0,0,1,2.833.064Z" transform="translate(9.587 60.371)"/>
        <g id="Group_10856" data-name="Group 10856" transform="translate(61.444 2)">
          <path id="Path_16386" data-name="Path 16386" d="M359.176,253.15s-4.056,37.1,1.159,57.42l49.577-2.176s-10.624-36.6-4.095-52.8Z" transform="translate(46.408 52.645)"/>
          <path id="Path_16387" data-name="Path 16387" d="M359,252.22s.335,40.061,2.369,52.282l50.221-2.382s-4.417-39.379-2.717-49.9Z" transform="translate(46.79 52.377)" fill="#f2f4f8"/>
          <path id="Path_16388" data-name="Path 16388" d="M399.4,265.3c0,.18-7.533.785-16.831,1.288s-16.869.876-16.882.682,7.52-.785,16.831-1.352S399.39,265.111,399.4,265.3Z" transform="translate(48.715 56.123)"/>
          <path id="Path_16389" data-name="Path 16389" d="M399.413,271.895c0,.18-7.533.785-16.831,1.288s-16.869.863-16.882.682,7.52-.785,16.831-1.352S399.4,271.7,399.413,271.895Z" transform="translate(48.718 58.02)"/>
          <path id="Path_16390" data-name="Path 16390" d="M389.543,278.38a12.635,12.635,0,0,1-2.807.4c-1.726.167-4.121.348-6.773.5s-5.061.27-6.8.322a12.057,12.057,0,0,1-2.833-.077,12.6,12.6,0,0,1,2.794-.4c1.738-.167,4.134-.348,6.786-.515s5.061-.258,6.8-.309a11.245,11.245,0,0,1,2.833.077Z" transform="translate(50.05 59.866)"/>
        </g>
        <g id="Group_10854" data-name="Group 10854" transform="translate(63 -3)">
          <path id="Path_16396" data-name="Path 16396" d="M407.347,210.81s-5.151,31.858.064,52.179l50.337-1.082s-10.3-32.438-3.773-48.663Z" transform="translate(60.047 40.463)"/>
          <path id="Path_16397" data-name="Path 16397" d="M407,209.89s.335,40.061,2.369,52.282l50.221-2.382s-4.417-39.379-2.717-49.9Z" transform="translate(60.601 40.198)" fill="#f2f4f8"/>
          <path id="Path_16398" data-name="Path 16398" d="M447.393,223.017c0,.193-7.52.8-16.831,1.352s-16.869.863-16.882.682,7.52-.786,16.843-1.352S447.38,222.773,447.393,223.017Z" transform="translate(62.523 43.953)"/>
          <path id="Path_16399" data-name="Path 16399" d="M447.4,229.552c0,.193-7.52.8-16.831,1.352s-16.869.863-16.882.682,7.533-.786,16.843-1.352S447.39,229.371,447.4,229.552Z" transform="translate(62.526 45.84)"/>
          <path id="Path_16400" data-name="Path 16400" d="M437.533,236.026a12.064,12.064,0,0,1-2.794.412c-1.738.167-4.134.348-6.786.5s-5.061.27-6.8.309a11.782,11.782,0,0,1-2.833-.064,12.107,12.107,0,0,1,2.807-.412c1.726-.155,4.134-.348,6.786-.5s5.048-.27,6.786-.309a12.53,12.53,0,0,1,2.833.064Z" transform="translate(63.858 47.685)"/>
        </g>
        <path id="Path_16405" data-name="Path 16405" d="M218.714,164.06s-4.636,44.864,1.532,54.265l46.59-2.833-2.472-49.835Z" transform="translate(5.945 27.012)"/>
        <path id="Path_16406" data-name="Path 16406" d="M218.34,164.06s.322,39.031,2.318,50.93l48.934-2.318s-4.3-38.361-2.64-48.612Z" transform="translate(6.666 26.561)" fill="#f2f4f8"/>
        <path id="Path_16413" data-name="Path 16413" d="M315.738,247.241c.064,0,0,.605-.631,1.288a7.958,7.958,0,0,1-2.82,1.944,8.345,8.345,0,0,1-4.687.863c0-.206,2.073-.464,4.417-1.481a9.787,9.787,0,0,0,2.743-1.661C315.378,247.653,315.635,247.2,315.738,247.241Z" transform="translate(32.001 50.944)" fill="#0096ff"/>
        <g id="Group_10855" data-name="Group 10855">
          <g transform="matrix(1, 0, 0, 1, 90.81, -10.52)" filter="url(#Path_16415)">
            <path id="Path_16415-2" data-name="Path 16415" d="M575.009,289.089l-4.5-7.119-5.805,7.119H421.76V421.5H587.44V289.089Z" transform="translate(210.16 845.05) rotate(-90)" fill="#fff" stroke="#000" stroke-width="1"/>
          </g>
          <path id="Path_16417" data-name="Path 16417" d="M575.177,290.075c0,.193-23.644.335-52.809.335s-52.809-.142-52.809-.335,23.645-.335,52.809-.335S575.177,289.869,575.177,290.075Z" transform="translate(134.942 57.245)"/>
          <path id="Path_16418" data-name="Path 16418" d="M575.177,297.8c0,.18-23.644.335-52.809.335s-52.809-.155-52.809-.335,23.645-.335,52.809-.335S575.177,297.625,575.177,297.8Z" transform="translate(134.942 63.428)"/>
          <path id="Path_16419" data-name="Path 16419" d="M575.177,305.555c0,.18-23.644.335-52.809.335s-52.809-.154-52.809-.335,23.645-.335,52.809-.335S575.177,305.375,575.177,305.555Z" transform="translate(134.942 69.627)"/>
          <path id="Path_16420" data-name="Path 16420" d="M566.537,313.225c0,.18-21.71.335-48.477.335s-48.5-.155-48.5-.335,21.71-.335,48.5-.335S566.537,313.032,566.537,313.225Z" transform="translate(134.941 75.762)"/>
          <g id="Group_10869" data-name="Group 10869" transform="translate(395.293 168.267)">
            <rect id="Rectangle_1440" data-name="Rectangle 1440" width="86.936" height="129.467" transform="translate(325.177 80.08) rotate(90)" fill="#fff"/>
            <rect id="Rectangle_1441" data-name="Rectangle 1441" width="118.181" height="75.65" transform="translate(319.54 161.379) rotate(180)" fill="#ffc727"/>
            <path id="Path_16628" data-name="Path 16628" d="M210.322,102.177a7.594,7.594,0,1,0,5.965-5.965,7.594,7.594,0,0,0-5.965,5.965Z" transform="translate(2.487 2.749)" fill="#fff"/>
            <path id="Path_16630" data-name="Path 16630" d="M233.8,144.821h79.19L273.4,96.02Z" transform="translate(6.55 2.741)" opacity="0.2"/>
            <path id="Path_16632" data-name="Path 16632" d="M200.53,142.322h70.236L235.642,110.55Z" transform="translate(0.829 5.24)" opacity="0.2"/>
            <g id="Group_10862" data-name="Group 10862" transform="translate(201.359 147.562)" opacity="0.1">
              <rect id="Rectangle_1443" data-name="Rectangle 1443" width="118.181" height="13.817" transform="translate(0 0)"/>
            </g>
          </g>
        </g>
        <g id="Group_10808" data-name="Group 10808" transform="translate(289.02 143.635)">
          <g transform="matrix(1, 0, 0, 1, -198.21, -154.16)" filter="url(#Ellipse_547)">
            <circle id="Ellipse_547-2" data-name="Ellipse 547" cx="17" cy="17" r="17" transform="translate(198 154)" fill="#fff"/>
          </g>
          <g id="repeat" transform="translate(5.151 9.014)">
            <path id="Path_15850" data-name="Path 15850" d="M304.848,110.784a.848.848,0,0,1-.6-1.448l1.944-1.944-1.944-1.944a.848.848,0,0,1,1.2-1.2l2.544,2.544a.848.848,0,0,1,0,1.2l-2.544,2.544A.845.845,0,0,1,304.848,110.784Z" transform="translate(-290.432 -104)" fill="#0096ff"/>
            <path id="Path_15851" data-name="Path 15851" d="M59.469,171.707a.845.845,0,0,1-.6-.248l-2.544-2.544a.848.848,0,0,1,0-1.2l2.544-2.544a.848.848,0,1,1,1.2,1.2l-1.944,1.944,1.944,1.944a.848.848,0,0,1-.6,1.448Z" transform="translate(-51.837 -155.595)" fill="#0096ff"/>
            <path id="Path_15852" data-name="Path 15852" d="M144.848,238.784a.848.848,0,0,1,0-1.7h11.024a3.412,3.412,0,0,0,3.392-3.395v-.845a.848.848,0,0,1,.848-.848h0a.848.848,0,0,1,.848.848v.848a5.113,5.113,0,0,1-5.085,5.088Z" transform="translate(-138.912 -225.216)" fill="#0096ff"/>
            <path id="Path_15852-2" data-name="Path 15852" d="M160.112,232a.848.848,0,1,1,0,1.7H149.088a3.412,3.412,0,0,0-3.392,3.394v.845a.848.848,0,0,1-.848.848h0a.848.848,0,0,1-.848-.848v-.848A5.113,5.113,0,0,1,149.085,232Z" transform="translate(-144 -229.456)" fill="#0096ff"/>
          </g>
        </g>
        <g id="Group_2108-2" data-name="Group 2108" transform="translate(409.684 260.831)">
          <path id="Path_6169-2" data-name="Path 6169" d="M5.292,22.716a.994.994,0,0,1-.705-.292,15.639,15.639,0,0,1,0-22.13A1,1,0,0,1,6,1.7,13.434,13.434,0,0,0,2,11.358a13.215,13.215,0,0,0,4,9.655,1,1,0,0,1-.705,1.7Z" transform="translate(3.924 2.74)" fill="#0096ff"/>
          <path id="Path_6170-2" data-name="Path 6170" d="M1,22.716a1,1,0,0,1-.707-1.7A13.434,13.434,0,0,0,4.3,11.359a13.215,13.215,0,0,0-4-9.655A1,1,0,1,1,1.7.292,15.639,15.639,0,0,1,6.29,11.357,15.639,15.639,0,0,1,1.7,22.422.994.994,0,0,1,1,22.716Z" transform="translate(28.94 2.739)" fill="#0096ff"/>
          <path id="Path_6171-2" data-name="Path 6171" d="M6.477,28.2a.994.994,0,0,1-.705-.292,19.4,19.4,0,0,1,0-27.611A1,1,0,0,1,7.183,1.7a17.4,17.4,0,0,0,0,24.79,1,1,0,0,1-.705,1.7Z" transform="translate(0 0)" fill="#0096ff"/>
          <path id="Path_6172-2" data-name="Path 6172" d="M1,28.2a1,1,0,0,1-.705-1.7A17.4,17.4,0,0,0,5.48,14.1,17.4,17.4,0,0,0,.292,1.7,1,1,0,0,1,1.7.292,19.4,19.4,0,0,1,7.475,14.1,19.4,19.4,0,0,1,1.7,27.9.994.994,0,0,1,1,28.2Z" transform="translate(31.68 0.013)" fill="#0096ff"/>
          <path id="play-circle-2" data-name="play-circle" d="M10.935,0A10.935,10.935,0,1,0,21.87,10.935,10.947,10.947,0,0,0,10.935,0Zm3.931,11.424L8.849,15.058a.567.567,0,0,1-.858-.489V7.3a.567.567,0,0,1,.858-.489l6.017,3.635a.572.572,0,0,1,0,.978Z" transform="translate(8.748 3.28)" fill="#334052"/>
        </g>
        <path id="Path_16517" data-name="Path 16517" d="M348.043,135.812c0,.18-7.533.785-16.831,1.288s-16.869.863-16.882.67,7.52-.786,16.831-1.288S348.03,135.619,348.043,135.812Z" transform="translate(-81.063 70.869)"/>
        <path id="Path_16518" data-name="Path 16518" d="M348.053,142.4c0,.18-7.52.786-16.831,1.288s-16.869.876-16.882.682,7.52-.785,16.843-1.352S348.04,142.211,348.053,142.4Z" transform="translate(-81.06 72.762)"/>
        <path id="Path_16519" data-name="Path 16519" d="M338.183,148.89a12.6,12.6,0,0,1-2.794.4c-1.738.167-4.134.348-6.786.5s-5.061.27-6.8.322a11.3,11.3,0,0,1-2.833-.077,12.633,12.633,0,0,1,2.807-.4c1.726-.167,4.134-.348,6.786-.5s5.048-.27,6.786-.322a11.242,11.242,0,0,1,2.833.077Z" transform="translate(-79.728 74.609)"/>
        <g id="WooCommerce_logo" transform="translate(600.38 150.801)">
          <path id="Path_15714" data-name="Path 15714" d="M3.018,0H29.477a3.029,3.029,0,0,1,3.03,3.03v10.1a3.029,3.029,0,0,1-3.03,3.03H19.989l1.3,3.189L15.563,16.16H3.031A3.029,3.029,0,0,1,0,13.13V3.03A3.017,3.017,0,0,1,3.018,0Z" transform="translate(0)" fill="#0096ff"/>
          <path id="Path_15715" data-name="Path 15715" d="M13.015,15.088a1.064,1.064,0,0,1,.832-.41.965.965,0,0,1,1.15.951q.614,4.143,1.335,7.017l2.894-5.51a1.254,1.254,0,0,1,.991-.793c.581-.04.938.33,1.084,1.11a24.681,24.681,0,0,0,1.255,4.519A20.323,20.323,0,0,1,24.3,14.7a1.015,1.015,0,0,1,.872-.581,1.148,1.148,0,0,1,.832.264,1.035,1.035,0,0,1,.41.753,1.147,1.147,0,0,1-.132.634A16,16,0,0,0,25,20.545a24.608,24.608,0,0,0-.37,5.034,1.568,1.568,0,0,1-.159.872.852.852,0,0,1-.7.476,1.328,1.328,0,0,1-1.044-.489,13.081,13.081,0,0,1-2.92-5.629q-1.288,2.537-1.9,3.806c-.78,1.493-1.44,2.26-2,2.3-.357.026-.661-.277-.925-.912A57.251,57.251,0,0,1,12.8,15.973a1.126,1.126,0,0,1,.211-.885Zm28.4,2.075A3.043,3.043,0,0,0,39.3,15.629a3.468,3.468,0,0,0-.714-.079,3.563,3.563,0,0,0-3.105,1.982,7,7,0,0,0-1.031,3.726,5.116,5.116,0,0,0,.634,2.616A3.043,3.043,0,0,0,37.2,25.407a3.468,3.468,0,0,0,.714.079A3.533,3.533,0,0,0,41.015,23.5a7.081,7.081,0,0,0,1.031-3.739A4.876,4.876,0,0,0,41.412,17.162Zm-1.665,3.66a3.5,3.5,0,0,1-1,1.956,1.27,1.27,0,0,1-1.07.423c-.317-.066-.581-.344-.78-.859a3.354,3.354,0,0,1-.238-1.2,4.6,4.6,0,0,1,.092-.965,4.273,4.273,0,0,1,.7-1.572c.436-.647.9-.912,1.374-.819.317.066.581.344.78.859a3.354,3.354,0,0,1,.238,1.2,4.637,4.637,0,0,1-.092.978Zm-6.607-3.66a3.071,3.071,0,0,0-2.114-1.533,3.468,3.468,0,0,0-.714-.079,3.563,3.563,0,0,0-3.105,1.982,7,7,0,0,0-1.031,3.726,5.116,5.116,0,0,0,.634,2.616,3.043,3.043,0,0,0,2.114,1.533,3.469,3.469,0,0,0,.714.079A3.533,3.533,0,0,0,32.744,23.5a7.081,7.081,0,0,0,1.031-3.739A5,5,0,0,0,33.14,17.162Zm-1.678,3.66a3.5,3.5,0,0,1-1,1.956,1.27,1.27,0,0,1-1.07.423c-.317-.066-.581-.344-.78-.859a3.354,3.354,0,0,1-.238-1.2,4.6,4.6,0,0,1,.092-.965,4.273,4.273,0,0,1,.7-1.572c.436-.647.9-.912,1.374-.819.317.066.581.344.78.859a3.354,3.354,0,0,1,.238,1.2,3.9,3.9,0,0,1-.092.978Z" transform="translate(-11.163 -12.326)" fill="#fff"/>
        </g>
        <g id="Group_10811" data-name="Group 10811" transform="translate(478.848 201.626)">
          <path id="Path_15858" data-name="Path 15858" d="M2.882,17.048,1.125,15.8.66,13.575,3.605,8.2,6.757,4.842l3.049-2.48,3.1-1.24h1.447L15.7,2.362l.723,1.085-5.27,3.513-3.2,3.772-2.17,3.979-.465.62L4.018,15.8Z" transform="translate(-0.382 -0.649)" fill="#0096ff"/>
          <path id="Path_15678" data-name="Path 15678" d="M170.13,99.5a2.4,2.4,0,0,1,.607,0,2.078,2.078,0,0,0,.03-1.151c-.146-.7-.344-1.121-.751-1.056s-.423.572-.277,1.27A2.353,2.353,0,0,0,170.13,99.5Z" transform="translate(-149.327 -85.628)" fill="#334052"/>
          <path id="Path_15679" data-name="Path 15679" d="M125.19,113.948c.292.128.472.213.542.139.046-.047.031-.134-.038-.248a1.713,1.713,0,0,0-.755-.607,2.059,2.059,0,0,0-2,.241c-.2.143-.381.341-.355.461.008.04.038.068.107.078a12.319,12.319,0,0,1,1.372-.306A2.382,2.382,0,0,1,125.19,113.948Z" transform="translate(-107.892 -99.526)" fill="#334052"/>
          <path id="Path_15680" data-name="Path 15680" d="M132.781,123.1a1.38,1.38,0,0,0-.725.3.469.469,0,0,0-.186.29.09.09,0,0,0,.091.093,1.156,1.156,0,0,0,.278-.077,2.423,2.423,0,0,1,1.225-.127c.192.022.282.034.324-.032a.108.108,0,0,0-.011-.121A1.1,1.1,0,0,0,132.781,123.1Z" transform="translate(-116.07 -108.339)" fill="#334052"/>
          <path id="Path_15681" data-name="Path 15681" d="M161.322,127.916a.4.4,0,1,0-.3-.57C160.929,127.534,161.064,127.789,161.322,127.916Z" transform="translate(-141.704 -111.928)" fill="#334052"/>
          <path id="Path_15682" data-name="Path 15682" d="M174.747,121.33c-.21,0-.383.226-.388.514s.162.524.371.527.383-.226.388-.514S174.957,121.333,174.747,121.33Z" transform="translate(-153.468 -106.793)" fill="#334052"/>
          <path id="Path_15683" data-name="Path 15683" d="M35.362,140.2c-.053-.066-.138-.046-.22-.026a.8.8,0,0,1-.2.028.423.423,0,0,1-.358-.182.664.664,0,0,1,.016-.616l.049-.113a1.822,1.822,0,0,0,.134-1.611,1.428,1.428,0,0,0-1.093-.794,1.4,1.4,0,0,0-1.2.434,1.731,1.731,0,0,0-.447,1.455c.032.09.084.115.122.12.079.011.2-.047.268-.243,0-.014.012-.036.02-.064a1.907,1.907,0,0,1,.193-.453.824.824,0,0,1,.526-.363.843.843,0,0,1,.642.12.823.823,0,0,1,.312.991,2.321,2.321,0,0,0-.163.882.875.875,0,0,0,.782.9.669.669,0,0,0,.63-.314A.136.136,0,0,0,35.362,140.2Z" transform="translate(-28.176 -120.47)" fill="#334052"/>
          <path id="Path_15684" data-name="Path 15684" d="M26.572,18.582c-.013-.046-.1-.35-.211-.716a6.074,6.074,0,0,0-.232-.625,2.266,2.266,0,0,0,.406-1.65,2.079,2.079,0,0,0-.607-1.179,4.936,4.936,0,0,0-2.143-1.062c-.119-.034-.512-.141-.546-.152,0-.023-.029-1.287-.053-1.831a6.282,6.282,0,0,0-.241-1.609,4.311,4.311,0,0,0-1.114-1.989,6.759,6.759,0,0,0,2.207-4.294c0-2.562-3.15-3.337-7.027-1.731l-.822.349S14.7.635,14.68.616C10.261-3.239-3.559,12.123.86,15.854l.966.818a4.749,4.749,0,0,0-.268,2.191,4.312,4.312,0,0,0,1.492,2.771,4.53,4.53,0,0,0,2.926,1.178,11.2,11.2,0,0,0,10.255,6.53c4.941.147,9.089-2.172,10.828-6.337a8.727,8.727,0,0,0,.6-2.773C27.654,19.066,26.993,18.582,26.572,18.582ZM6.354,21.7a2.424,2.424,0,0,1-.458.032,3.564,3.564,0,0,1-3.265-2.977,2.945,2.945,0,0,1,2.316-3.439,2.7,2.7,0,0,1,.669-.048,2.843,2.843,0,0,1,2.509,2.679C8.392,19.672,7.969,21.426,6.354,21.7ZM4.688,14.264a3.8,3.8,0,0,0-2.4,1.531,6.432,6.432,0,0,1-1.02-.984C.414,13.191,2.2,10.04,3.445,8.26c3.082-4.4,7.908-7.727,10.142-7.123a8.785,8.785,0,0,1,1.566,1.5,31.453,31.453,0,0,0-4.3,2.967A19.558,19.558,0,0,0,4.688,14.264Zm15.666,6.778a.088.088,0,0,0,.052-.087.082.082,0,0,0-.09-.073,10.45,10.45,0,0,1-4.547-.462c.241-.782.881-.5,1.848-.422a13.517,13.517,0,0,0,4.459-.482,10.234,10.234,0,0,0,3.334-1.658,6.747,6.747,0,0,1,.466,1.588.771.771,0,0,1,.489.09c.211.129.364.4.259,1.094a6.059,6.059,0,0,1-1.7,3.326,7,7,0,0,1-2.037,1.523,8.618,8.618,0,0,1-1.33.562c-3.5,1.143-7.085-.114-8.24-2.813a4.285,4.285,0,0,1-.231-.637,5.6,5.6,0,0,1,1.232-5.257h0a.475.475,0,0,0,.163-.313.548.548,0,0,0-.126-.3c-.456-.663-2.04-1.792-1.723-3.979a2.979,2.979,0,0,1,2.883-2.611l.325.019c.555.032,1.039.1,1.5.123a2.988,2.988,0,0,0,2.267-.757,1.748,1.748,0,0,1,.867-.49,1.034,1.034,0,0,1,.332-.032,1.091,1.091,0,0,1,.558.179c.653.435.745,1.487.779,2.256.019.44.072,1.5.091,1.808.042.7.225.8.6.919.208.068.4.12.688.2a3.9,3.9,0,0,1,1.7.805,1.067,1.067,0,0,1,.31.607c.1.743-.578,1.662-2.375,2.5a12.074,12.074,0,0,1-6,.96l-.578-.065c-1.318-.177-2.069,1.525-1.278,2.692a4.193,4.193,0,0,0,3.287,1.241c3.185,0,5.632-1.36,6.543-2.534a1.17,1.17,0,0,0,.073-.1c.044-.067.008-.1-.048-.067-.744.509-4.049,2.529-7.582,1.922a4.754,4.754,0,0,1-.822-.223A1.472,1.472,0,0,1,15.709,21,6.887,6.887,0,0,0,20.353,21.042Zm-4.518-.533h0s0,0,0,0S15.836,20.509,15.835,20.509ZM10.379,8.242a13.01,13.01,0,0,1,3.652-2.985.047.047,0,0,1,.064.065,3.52,3.52,0,0,0-.339.828.049.049,0,0,0,.075.052A7.112,7.112,0,0,1,17.037,5.07a.05.05,0,0,1,.034.09,2.724,2.724,0,0,0-.5.506.049.049,0,0,0,.038.078,6.289,6.289,0,0,1,2.68.7c.05.028.014.125-.042.113a10.908,10.908,0,0,0-4.856.013,11.153,11.153,0,0,0-3.943,1.743A.049.049,0,0,1,10.379,8.242Z" transform="translate(0.001 0)" fill="#334052"/>
        </g>
        <g id="Group_10812" data-name="Group 10812" transform="translate(290.197 250.234)">
          <circle id="Ellipse_527" data-name="Ellipse 527" cx="13" cy="13" r="13" transform="translate(0.614 11.241)" fill="#0096ff"/>
          <g id="Group_9784" data-name="Group 9784" transform="translate(5.84 20.003)" clip-path="url(#clip-path)">
            <path id="Path_15712" data-name="Path 15712" d="M6.588,10.823H23.813v9.958H6.588Z" transform="translate(-7.261 -11.493)" fill="#fff"/>
          </g>
        </g>
      </g>
      <g id="freepik--character-1--inject-4">
        <path id="Path_16421" data-name="Path 16421" d="M297.68,179.72a7.77,7.77,0,0,0-3.18-7.78,8.38,8.38,0,0,0-8.46-.44,9.11,9.11,0,0,0-4.67,7.15c-.28,3.35,1.23,6.54,2.52,9.64s2.41,6.57,1.34,9.75c-.88,2.63-3.09,4.54-5,6.56a13.29,13.29,0,0,0-3.74,6.44c-.46,2.47.46,5.34,2.7,6.51a3.5,3.5,0,0,1,1.41.92c.62.88,0,2.05-.45,3a6.94,6.94,0,0,0-.23,4.69c1,3.36,4.71,5.51,8.22,5.31a11.51,11.51,0,0,0,8.64-5.36,19.86,19.86,0,0,0,2.9-10,75.5,75.5,0,0,0-.59-10.51c-.82-8.78,3.28-17.87,3.72-26.68" fill="#263238"/>
        <path id="Path_16422" data-name="Path 16422" d="M305.56,232.07h0a8.8,8.8,0,0,0,9.46-8.43c.18-4.79.34-9.62.34-9.62s7.25-.68,7.78-7.86.28-23.74.28-23.74h0A25,25,0,0,0,298.15,184l.45,25.26v13.59C298.65,227.44,301,231.72,305.56,232.07Z" fill="#ffbe9d"/>
        <path id="Path_16423" data-name="Path 16423" d="M316,197.4a3.67,3.67,0,0,0-4.91-1.07,4.17,4.17,0,0,0-1.39,5.21,5.54,5.54,0,0,0,3.52,2.67,2.74,2.74,0,0,1,2.16,3,9.24,9.24,0,0,1-2.52,5,13.26,13.26,0,0,1-8.3,3.94c-3.06.36-6.56-.28-8.34-2.79-1.3-1.83-1.39-4.22-1.43-6.46l-.34-15.9a22.64,22.64,0,0,1,.36-5.7,7.69,7.69,0,0,1,3-4.71c1.75-1.15,4-1.24,5.95-1.89,2.48-.8,4.59-2.45,6.92-3.64s5.18-1.9,7.51-.73c1.68.84,2.8,2.52,4.43,3.44,2.32,1.32,5.48,1,6.6,4.43a5.84,5.84,0,0,1,0,3.65c-1.58,4.65-7.33,6.52-11.47,4.51-.08.79.69,2.54-.13,5-.27.8-.36,2-1.6,2" fill="#263238"/>
        <path id="Path_16424" data-name="Path 16424" d="M296.08,212.58a21.55,21.55,0,0,1-1.16-30" fill="#263238"/>
        <path id="Path_16425" data-name="Path 16425" d="M301.54,214.89a1.619,1.619,0,0,1-.37.11,4.2,4.2,0,0,1-1.09,0,6.06,6.06,0,0,1-3.51-1.83,18.109,18.109,0,0,1-3.17-5,31.94,31.94,0,0,1-2.36-6.8,25.781,25.781,0,0,1-.61-7.18,22.608,22.608,0,0,1,1.09-5.78,19.229,19.229,0,0,1,1.62-3.62c.24-.41.44-.71.58-.91s.23-.3.24-.29a31.9,31.9,0,0,0-2.08,4.93,23.919,23.919,0,0,0-1,5.69,26.41,26.41,0,0,0,.64,7,32.61,32.61,0,0,0,2.29,6.71,18.35,18.35,0,0,0,3,4.91,6.11,6.11,0,0,0,3.28,1.89A8.89,8.89,0,0,0,301.54,214.89Z" fill="#455a64"/>
        <path id="Path_16426" data-name="Path 16426" d="M294.1,183.3c.08,0,.64,1,1.72,2.66a34.9,34.9,0,0,0,4.86,5.84,35.28,35.28,0,0,0,6,4.62c1.67,1,2.77,1.53,2.73,1.61a3.12,3.12,0,0,1-.82-.27q-1.074-.447-2.1-1a29.76,29.76,0,0,1-6.21-4.57,29,29,0,0,1-4.81-6,21,21,0,0,1-1.11-2.06,3,3,0,0,1-.26-.83Z" fill="#455a64"/>
        <path id="Path_16427" data-name="Path 16427" d="M308,194.5a8.75,8.75,0,0,1-2.32-1.15,26.69,26.69,0,0,1-8.78-8.82,9,9,0,0,1-1.14-2.32,20.33,20.33,0,0,1,1.45,2.12,32.85,32.85,0,0,0,8.67,8.71A22.828,22.828,0,0,1,308,194.5Z" fill="#455a64"/>
        <path id="Path_16428" data-name="Path 16428" d="M317.31,194.5a3.7,3.7,0,0,1-1-.08,19.756,19.756,0,0,1-2.66-.54A27.88,27.88,0,0,1,299,184.05a19.078,19.078,0,0,1-1.51-2.25,3.529,3.529,0,0,1-.45-.89c.08,0,.81,1.17,2.25,2.91a31.23,31.23,0,0,0,6.54,5.91,30.881,30.881,0,0,0,7.94,3.79C315.93,194.19,317.33,194.41,317.31,194.5Z" fill="#455a64"/>
        <path id="Path_16429" data-name="Path 16429" d="M288.18,224.4a3.84,3.84,0,0,0,.31-.63,3.15,3.15,0,0,0,.09-1.94,4.72,4.72,0,0,0-1.72-2.54c-.95-.79-2.22-1.41-3.55-2.29a8,8,0,0,1-1.86-1.69,4.64,4.64,0,0,1-.95-2.59,8.69,8.69,0,0,1,2.09-5.55c1.25-1.68,2.86-3.2,3.8-5.21a11.72,11.72,0,0,0,.75-6.7,31,31,0,0,0-1.92-6.66,50.178,50.178,0,0,1-2.08-6.2,10.487,10.487,0,0,1-.07-6,4.34,4.34,0,0,1,1.76-2.12,3.25,3.25,0,0,1,2.53-.33,7.78,7.78,0,0,1,3.44,2.54l2.1,2.41,1.32,1.54a5.107,5.107,0,0,1,.43.56,5.373,5.373,0,0,1-.51-.49l-1.39-1.47-2.16-2.36a7.75,7.75,0,0,0-3.32-2.38,2.9,2.9,0,0,0-2.23.32,4,4,0,0,0-1.57,1.94c-.64,1.68-.33,3.7.14,5.68a50.538,50.538,0,0,0,2.09,6.13,31,31,0,0,1,2,6.76,12.3,12.3,0,0,1-.81,7c-1,2.12-2.65,3.65-3.88,5.28a8.34,8.34,0,0,0-2,5.24,4.25,4.25,0,0,0,.84,2.37,7.7,7.7,0,0,0,1.75,1.63,39,39,0,0,1,3.52,2.37,4.85,4.85,0,0,1,1.73,2.72,3.16,3.16,0,0,1-.18,2,1.82,1.82,0,0,1-.49.66Z" fill="#455a64"/>
        <path id="Path_16430" data-name="Path 16430" d="M271.28,455.71l4.87-5.93-11-9.21-7.23,8.61.65.61c2.91,2.71,15,13.58,17.54,14.66C278.91,465.65,271.28,455.71,271.28,455.71Z" fill="#0096ff"/>
        <g id="Group_10800" data-name="Group 10800" opacity="0.5">
          <path id="Path_16431" data-name="Path 16431" d="M262,452.43a5,5,0,0,0,.56-3.53,4.91,4.91,0,0,0-1.92-3L258,449Z" fill="#fff"/>
        </g>
        <g id="Group_10801" data-name="Group 10801" opacity="0.4">
          <path id="Path_16432" data-name="Path 16432" d="M274.87,460.73s2.5,3.69,1.64,3.89S263,454.3,257.87,449.18l.23-.23,14.6,12.39S274.2,460.22,274.87,460.73Z" fill="#fff"/>
        </g>
        <path id="Path_16433" data-name="Path 16433" d="M257.93,448.79a1.324,1.324,0,0,0,.17.18l.52.49,1.94,1.76c1.64,1.48,3.94,3.48,6.53,5.65s5,4.06,6.72,5.42l2.08,1.59.57.42.2.14-.18-.16-.55-.45-2.05-1.64c-1.72-1.38-4.09-3.3-6.68-5.46s-4.9-4.15-6.56-5.6l-2-1.72-.54-.46Z" fill="#263238"/>
        <path id="Path_16434" data-name="Path 16434" d="M272.56,461.51a6.646,6.646,0,0,1,1.17-.65,5.69,5.69,0,0,1,1.33-.19,2.32,2.32,0,0,0-2.5.84Z" fill="#263238"/>
        <path id="Path_16435" data-name="Path 16435" d="M270.68,457.14a1.67,1.67,0,0,0,.7-.14c.37-.12.66-.25.65-.3a1.65,1.65,0,0,0-.7.14C271,457,270.66,457.09,270.68,457.14Z" fill="#263238"/>
        <path id="Path_16436" data-name="Path 16436" d="M270.18,455.92c0,.05.27.08.6.06s.61-.06.6-.11a1.25,1.25,0,0,0-.6-.06C270.44,455.82,270.18,455.87,270.18,455.92Z" fill="#263238"/>
        <path id="Path_16437" data-name="Path 16437" d="M270.48,454.4a3.21,3.21,0,0,0,.52.56c.32.27.59.46.63.42s-.2-.28-.52-.55a2,2,0,0,0-.63-.43Z" fill="#263238"/>
        <path id="Path_16438" data-name="Path 16438" d="M270.9,453.51a2.16,2.16,0,0,0,1.23,1.19,6.6,6.6,0,0,0-.62-.59C271.18,453.79,270.94,453.48,270.9,453.51Z" fill="#263238"/>
        <path id="Path_16439" data-name="Path 16439" d="M271.86,456.49a2.62,2.62,0,0,0,.71.58,5.319,5.319,0,0,0,.9.47,2.649,2.649,0,0,0,.58.18.53.53,0,0,0,.36-.07.4.4,0,0,0,.13-.38,1.72,1.72,0,0,0-2.56-.68.61.61,0,0,0-.18.18,2.671,2.671,0,0,1,.83-.34,1.76,1.76,0,0,1,.94.11,1.45,1.45,0,0,1,.79.77c.05.17-.11.27-.29.24a2.849,2.849,0,0,1-.55-.16,6.793,6.793,0,0,1-.89-.42C272.15,456.69,271.87,456.46,271.86,456.49Z" fill="#263238"/>
        <path id="Path_16440" data-name="Path 16440" d="M272,456.67a.968.968,0,0,0,.49-.42,1.34,1.34,0,0,0,.24-.68.9.9,0,0,0-.29-.85.36.36,0,0,0-.49.14,1,1,0,0,0-.14.42,2.929,2.929,0,0,0,0,.71,1.37,1.37,0,0,0,.17.62v-.63a2.771,2.771,0,0,1,.06-.67c0-.24.18-.56.39-.44s.22.46.21.69a1.5,1.5,0,0,1-.18.63A3.13,3.13,0,0,1,272,456.67Z" fill="#263238"/>
        <path id="Path_16441" data-name="Path 16441" d="M260.67,446a9.743,9.743,0,0,1,.8.71,4.5,4.5,0,0,1,1,4.72c-.23.61-.48.94-.45,1s.08-.07.19-.22a4.252,4.252,0,0,0,.37-.7,4.34,4.34,0,0,0-1-4.85,3.911,3.911,0,0,0-.62-.49C260.77,446,260.68,446,260.67,446Z" fill="#263238"/>
        <path id="Path_16442" data-name="Path 16442" d="M265.65,442.32a27.464,27.464,0,0,0-2,2.19,23.627,23.627,0,0,0-1.86,2.3,49.1,49.1,0,0,0,3.84-4.49Z" fill="#263238"/>
        <path id="Path_16443" data-name="Path 16443" d="M264.24,452.51a11.581,11.581,0,0,0,3.2,2.72s-.73-.6-1.61-1.35S264.28,452.48,264.24,452.51Z" fill="#263238"/>
        <path id="Path_16444" data-name="Path 16444" d="M262.08,450.7c-.05,0-.07.2-.13.43s-.15.41-.11.44.2-.13.27-.39S262.13,450.7,262.08,450.7Z" fill="#263238"/>
        <path id="Path_16445" data-name="Path 16445" d="M262.11,449c-.05,0-.07.17-.06.39s.08.37.12.37.08-.18.06-.39S262.16,449,262.11,449Z" fill="#263238"/>
        <path id="Path_16446" data-name="Path 16446" d="M261.33,447.57s.12.16.24.36.16.37.21.37.08-.23-.06-.46S261.35,447.52,261.33,447.57Z" fill="#263238"/>
        <path id="Path_16447" data-name="Path 16447" d="M260.68,446.66v.24c0,.11.14.19.19.16s0-.13,0-.24S260.72,446.63,260.68,446.66Z" fill="#263238"/>
        <path id="Path_16448" data-name="Path 16448" d="M322,458.17l-.17-7.68-14.38.23.13,11.24h.89c4,.16,20.21.52,22.85-.33C334.3,460.73,322,458.17,322,458.17Z" fill="#0096ff"/>
        <g id="Group_10802" data-name="Group 10802" opacity="0.5">
          <path id="Path_16449" data-name="Path 16449" d="M312.82,461.76a5,5,0,0,0-1.88-3,4.85,4.85,0,0,0-3.38-1l.06,4Z" fill="#fff"/>
        </g>
        <g id="Group_10803" data-name="Group 10803" opacity="0.4">
          <path id="Path_16450" data-name="Path 16450" d="M328,459.63s4.3,1.17,3.78,1.88-16.95,1-24.2.45v-.33l19.16-.13S327.19,459.68,328,459.63Z" fill="#fff"/>
        </g>
        <path id="Path_16451" data-name="Path 16451" d="M307.4,461.63h.96l2.62.08c2.21,0,5.26.06,8.63,0s6.42-.17,8.63-.28l2.61-.15.71-.05a.791.791,0,0,0,.25,0h-.96l-2.61.09c-2.21.08-5.26.17-8.63.22s-6.42,0-8.63,0H307.4Z" fill="#263238"/>
        <path id="Path_16452" data-name="Path 16452" d="M326.79,461.73a5.361,5.361,0,0,1,.47-1.26,5.63,5.63,0,0,1,.87-1,2.32,2.32,0,0,0-1.34,2.27Z" fill="#263238"/>
        <path id="Path_16453" data-name="Path 16453" d="M322.51,459.64a3.05,3.05,0,0,0,.44-.56c.2-.33.34-.62.3-.65s-.24.22-.44.56S322.47,459.61,322.51,459.64Z" fill="#263238"/>
        <path id="Path_16454" data-name="Path 16454" d="M321.34,459a2.3,2.3,0,0,0,.5-.35c.25-.23.41-.43.38-.47s-.26.12-.5.35S321.3,459,321.34,459Z" fill="#263238"/>
        <path id="Path_16455" data-name="Path 16455" d="M320.58,457.69a1.62,1.62,0,0,0,.75.09.38.38,0,1,0,0-.18A2,2,0,0,0,320.58,457.69Z" fill="#263238"/>
        <path id="Path_16456" data-name="Path 16456" d="M320.31,456.74a1.48,1.48,0,0,0,.84.23,1.4,1.4,0,0,0,.86-.13,4.769,4.769,0,0,0-.85,0,4.238,4.238,0,0,0-.85-.1Z" fill="#263238"/>
        <path id="Path_16457" data-name="Path 16457" d="M323,458.38a2.871,2.871,0,0,0,.92,0,4.792,4.792,0,0,0,1-.24,2.061,2.061,0,0,0,.56-.24.53.53,0,0,0,.23-.29.35.35,0,0,0-.15-.36,1.69,1.69,0,0,0-2.09.52,1.88,1.88,0,0,0-.29.63.61.61,0,0,0,0,.25,2.58,2.58,0,0,1,.41-.8,1.6,1.6,0,0,1,.78-.52,1.4,1.4,0,0,1,1.1.05c.15.11.1.28-.06.38a2.419,2.419,0,0,1-.52.23,6.734,6.734,0,0,1-.95.27A8.3,8.3,0,0,0,323,458.38Z" fill="#263238"/>
        <path id="Path_16458" data-name="Path 16458" d="M323.22,458.42a1,1,0,0,0,.09-.64,1.45,1.45,0,0,0-.26-.68.93.93,0,0,0-.77-.46.37.37,0,0,0-.28.44,1,1,0,0,0,.16.41,2.6,2.6,0,0,0,.45.55c.29.28.52.38.53.36s-.19-.16-.45-.45a2.511,2.511,0,0,1-.39-.55c-.13-.19-.22-.54,0-.58s.47.2.61.38a1.51,1.51,0,0,1,.27.6,3.2,3.2,0,0,1,.04.62Z" fill="#263238"/>
        <path id="Path_16459" data-name="Path 16459" d="M307.64,457.69a5.922,5.922,0,0,1,1.06,0,4.5,4.5,0,0,1,3.81,3c.23.61.26,1,.29,1a.74.74,0,0,0,0-.29,4.137,4.137,0,0,0-.17-.78,4.51,4.51,0,0,0-1.49-2.12,4.46,4.46,0,0,0-2.43-.9,3.65,3.65,0,0,0-.79,0C307.73,457.65,307.63,457.68,307.64,457.69Z" fill="#263238"/>
        <path id="Path_16460" data-name="Path 16460" d="M309,451.68a27.274,27.274,0,0,0-.07,3,24.165,24.165,0,0,0,.09,2.95,25.562,25.562,0,0,0,.08-2.95,23,23,0,0,0-.1-3Z" fill="#263238"/>
        <path id="Path_16461" data-name="Path 16461" d="M314.61,460.33a9,9,0,0,0,2.11.18,8,8,0,0,0,2.1-.21c0-.05-.95,0-2.11,0A18.43,18.43,0,0,0,314.61,460.33Z" fill="#263238"/>
        <path id="Path_16462" data-name="Path 16462" d="M311.79,460.37s.08.2.18.41.16.4.21.4.07-.23-.05-.47S311.82,460.33,311.79,460.37Z" fill="#263238"/>
        <path id="Path_16463" data-name="Path 16463" d="M310.71,459.06a.861.861,0,0,0,.21.33c.15.14.3.25.34.21s-.06-.18-.21-.33S310.74,459,310.71,459.06Z" fill="#263238"/>
        <path id="Path_16464" data-name="Path 16464" d="M309.18,458.48a.968.968,0,0,1,.42.12c.22.12.36.18.4.15s-.09-.23-.35-.32S309.17,458.44,309.18,458.48Z" fill="#263238"/>
        <path id="Path_16465" data-name="Path 16465" d="M308.09,458.21c0,.05.07.12.19.17a.39.39,0,0,0,.25,0c.02,0-.07-.11-.19-.16S308.11,458.17,308.09,458.21Z" fill="#263238"/>
        <path id="Path_16466" data-name="Path 16466" d="M301.21,295s-4.79,20.26-3.43,24.27,10.12,6.33,10.12,6.33l-.29,55.49-48.53,60L277,455.76s52.53-60.1,57.16-71-3-90.65-3-90.65Z" fill="#334052"/>
        <path id="Path_16467" data-name="Path 16467" d="M326,286.77l2.38,168.53-24.69.12-16-134.54h0c-2.44-8-5.22-16.35-4.72-25.89l3.31-9.69Z" fill="#334052"/>
        <path id="Path_16468" data-name="Path 16468" d="M297.37,312.51a5,5,0,0,1,.58.5c.35.35.88.87,1.52,1.57,1.3,1.4,3.12,3.49,5.29,6.19h0v.06c.45,7.55,1.34,18.56,2.41,30.79.85,10,1.73,19.06,2.27,26.15v.07l-.05.06-6.87,9.2-1.9,2.5-.51.65-.19.21s0-.09.14-.25l.46-.68,1.82-2.57,6.73-9.3v.12c-.65-7.08-1.48-16.19-2.39-26.12-1.07-12.23-1.89-23.25-2.24-30.81v.1c-2.13-2.72-3.91-4.85-5.16-6.28-.62-.72-1.12-1.26-1.45-1.63a3.6,3.6,0,0,1-.46-.53Z" fill="#455a64"/>
        <path id="Path_16469" data-name="Path 16469" d="M324.45,378.42a24.349,24.349,0,0,0-6.67-1.74,25.341,25.341,0,0,0-6.85.66,5.56,5.56,0,0,1,1.92-.75,15.15,15.15,0,0,1,9.82.78,5.32,5.32,0,0,1,1.78,1.05Z" fill="#455a64"/>
        <path id="Path_16470" data-name="Path 16470" d="M333.16,386.22c.11.09-6.83,9.41-15.51,20.82s-15.81,20.59-15.92,20.5,6.82-9.41,15.51-20.82S333,386.14,333.16,386.22Z" fill="#455a64"/>
        <path id="Path_16471" data-name="Path 16471" d="M332,299.29a4.25,4.25,0,0,1-1.39,1.83,6.88,6.88,0,0,1-10.07-1.06,4.08,4.08,0,0,1-1-2.08,21.628,21.628,0,0,0,1.26,1.85,6.86,6.86,0,0,0,9.54,1C331.42,300,331.87,299.23,332,299.29Z" fill="#455a64"/>
        <path id="Path_16472" data-name="Path 16472" d="M278.76,250.58s-3.75,27.42,0,30.89,7.34,2.33,7.34,2.33l7.13-6,1.4-27.26Z" fill="#ffbe9d"/>
        <path id="Path_16473" data-name="Path 16473" d="M282.22,228.3s-5.36,6.06-6.47,29.23c0,0,15.27,2.9,15.55,2.06S282.22,228.3,282.22,228.3Z" fill="#0096ff"/>
        <path id="Path_16474" data-name="Path 16474" d="M282.93,295l48.65.79-.75-7.32s-5.36-27.87-5.32-28.23l.84-1.78a16.19,16.19,0,0,0,.41-14.08h23.62l-1-19.16-24.79-3.65-9.22-.73s-16.25.85-16.6.89c-6.8.82-14.71,1.34-17.6,8.62-1.55,3.89-.08,9.73,2.44,15.76l6,18.49c2.4,10.17-1.43,9.69-3.53,19.92C285.78,286.06,282.9,293.57,282.93,295Z" fill="#0096ff"/>
        <path id="Path_16483" data-name="Path 16483" d="M289.35,263.73a4,4,0,0,1-.41-.92c-.28-.72-.6-1.57-1-2.56-.82-2.17-2-5.15-3.19-8.47s-2.21-6.37-2.84-8.61c-.32-1.11-.55-2-.69-2.66a4.439,4.439,0,0,1-.16-1,36.128,36.128,0,0,1,1.2,3.56c.72,2.19,1.77,5.21,3,8.53s2.31,6.32,3.05,8.52c.37,1.1.65,2,.83,2.62A3.3,3.3,0,0,1,289.35,263.73Z" fill="#263238"/>
        <path id="Path_16486" data-name="Path 16486" d="M352.65,178.42s-.11-.62-.21-1.84a19.57,19.57,0,0,1,.42-5.41,22.42,22.42,0,0,1,12.8-15.63,24.64,24.64,0,0,1,6.93-1.91,26.779,26.779,0,0,1,7.92.17,29,29,0,0,1,15.68,8.32,34.609,34.609,0,0,1,6,8,31.75,31.75,0,0,1,3.37,10.1,30,30,0,0,1-.33,11.26,25.329,25.329,0,0,1-1.94,5.56,22.543,22.543,0,0,1-3.4,5,23,23,0,0,1-10.59,6.44,39.091,39.091,0,0,1-12.95,1.33A51.361,51.361,0,0,1,363,207.43a23.11,23.11,0,0,1-11.48-8,23.82,23.82,0,0,1-4.42-13.76,26.461,26.461,0,0,1,1-7.42,30.8,30.8,0,0,1,3.11-6.94,33.889,33.889,0,0,1,4.87-6,33.168,33.168,0,0,1,6.31-4.63,29.3,29.3,0,0,1,7.44-2.76,26.92,26.92,0,0,1,8-.42,31.73,31.73,0,0,1,25.53,18.77,27.41,27.41,0,0,1,1.49,16.82,21.87,21.87,0,0,1-3.6,7.9,19.41,19.41,0,0,1-6.68,5.65,24.08,24.08,0,0,1-8.47,2.49,30.289,30.289,0,0,1-8.91-.37,30.9,30.9,0,0,1-15.81-8.25,25.19,25.19,0,0,1-5.26-7.44,19.46,19.46,0,0,1-1.74-9c.34-6.23,3.65-12,8.25-16.21a29.24,29.24,0,0,1,16.71-7.48,25,25,0,0,1,17.31,4.81,22.63,22.63,0,0,1,6,6.74,19.62,19.62,0,0,1,1.83,4.14c.26.71.4,1.45.59,2.18a12,12,0,0,1,.33,2.23,24.18,24.18,0,0,1-4.64,16.82,26.15,26.15,0,0,1-14.37,9.44,28.17,28.17,0,0,1-16.88-.83c-10.64-3.86-18.87-13.35-20.64-24.09a23.24,23.24,0,0,1,2.69-15.5,27.06,27.06,0,0,1,11.09-10.65,33,33,0,0,1,14.55-3.6,38,38,0,0,1,14.33,2.49c9,3.4,16.35,10.21,19.58,18.57A28.45,28.45,0,0,1,409,197.81a23.17,23.17,0,0,1-8.53,8.2,28.1,28.1,0,0,1-10.75,3.35,36.57,36.57,0,0,1-20-4.07,44.41,44.41,0,0,1-14.17-10.93A28.62,28.62,0,0,1,349,181a22.06,22.06,0,0,1,1.34-11.88,19.82,19.82,0,0,1,5-7.25,16.5,16.5,0,0,1,4.56-2.93c1.15-.41,1.75-.59,1.75-.59l-.44.16c-.29.11-.73.26-1.29.48a16.9,16.9,0,0,0-4.51,3,19.83,19.83,0,0,0-4.9,7.23A22,22,0,0,0,349.2,181a28.42,28.42,0,0,0,6.56,13.34,44.31,44.31,0,0,0,14.11,10.83,36.32,36.32,0,0,0,19.88,4,27.92,27.92,0,0,0,10.61-3.32,22.73,22.73,0,0,0,8.38-8.1,28.08,28.08,0,0,0,2.06-24.34c-3.2-8.23-10.51-15-19.36-18.31a37.561,37.561,0,0,0-14.17-2.44,32.47,32.47,0,0,0-14.35,3.55A26.72,26.72,0,0,0,352,166.65a22.77,22.77,0,0,0-2.63,15.19c1.74,10.55,9.86,19.91,20.34,23.7a27.61,27.61,0,0,0,16.59.81,25.59,25.59,0,0,0,14.08-9.26A23.67,23.67,0,0,0,405,180.63c-.05-.73-.22-1.45-.33-2.18a21.721,21.721,0,0,0-2.35-6.16,22.4,22.4,0,0,0-5.91-6.59,24.2,24.2,0,0,0-17-4.7A28.72,28.72,0,0,0,363,168.3c-4.51,4.1-7.75,9.79-8.08,15.85a19,19,0,0,0,1.69,8.77,24.88,24.88,0,0,0,5.15,7.28,30.39,30.39,0,0,0,15.55,8.11,29.9,29.9,0,0,0,8.75.37,23.16,23.16,0,0,0,8.29-2.44,18.73,18.73,0,0,0,6.51-5.5,21.23,21.23,0,0,0,3.52-7.7,27,27,0,0,0-1.46-16.52A31.27,31.27,0,0,0,377.8,158a27,27,0,0,0-7.88.41,28.889,28.889,0,0,0-7.3,2.72,32.12,32.12,0,0,0-6.22,4.54,32.619,32.619,0,0,0-4.8,5.9,30.228,30.228,0,0,0-3.07,6.82,26.229,26.229,0,0,0-1,7.29,23.39,23.39,0,0,0,4.33,13.5A22.6,22.6,0,0,0,363.11,207a51.319,51.319,0,0,0,13.23,2.41,38.49,38.49,0,0,0,12.82-1.3,21.45,21.45,0,0,0,13.78-11.23,25,25,0,0,0,1.92-5.48,29.89,29.89,0,0,0,.35-11.13,32.58,32.58,0,0,0-9.22-18A28.8,28.8,0,0,0,380.47,154a26.33,26.33,0,0,0-7.85-.18,24.361,24.361,0,0,0-6.88,1.87,22,22,0,0,0-9.2,7.48,22.31,22.31,0,0,0-3.58,8,20.289,20.289,0,0,0-.47,5.39,13.575,13.575,0,0,0,.12,1.38C352.63,178.25,352.65,178.42,352.65,178.42Z" fill="#0096ff"/>
        <path id="Path_16487" data-name="Path 16487" d="M392,173.24c0,.13-6.51,2.31-14.63,4.86s-14.75,4.51-14.79,4.37,6.51-2.31,14.63-4.86S391.91,173.1,392,173.24Z" fill="#0096ff"/>
        <path id="Path_16488" data-name="Path 16488" d="M393.81,178c.05.13-6.06,2.36-13.64,5s-13.75,4.61-13.8,4.47,6.06-2.36,13.64-5S393.76,177.85,393.81,178Z" fill="#0096ff"/>
        <path id="Path_16489" data-name="Path 16489" d="M382.62,187.76c.16.22-3,1.47-6.82,2.83-1.92.68-3.68,1.26-5,1.66a8.759,8.759,0,0,1-2.11.54,9.31,9.31,0,0,1,2-.89c1.25-.48,3-1.12,4.91-1.8s3.68-1.28,4.95-1.7S382.67,187.74,382.62,187.76Z" fill="#0096ff"/>
        <path id="Path_16490" data-name="Path 16490" d="M388.26,192.47s-4.58-2.12-4.8-1,.09,1.57,1,1.85,3.39,1.12,3.39,1.12Z" fill="#ffbe9d"/>
        <path id="Path_16491" data-name="Path 16491" d="M388,194.56s-4.58-2.12-4.8-1,.08,1.56,1,1.85,3.39,1.12,3.39,1.12Z" fill="#eb996e"/>
        <path id="Path_16492" data-name="Path 16492" d="M377.47,199.24,360.09,222c-2.48,3.67-6.33,5.5-8.93,5.57l-1.63.14.81,15.51,6.86-.78a13.8,13.8,0,0,0,10.37-6.78l17.67-30.54a52.544,52.544,0,0,0,3.1-6.1c1-2.64-.08-6.59-.08-6.59l-7,4.42v-4.77s-.75-.26-2.21,1.17C377.79,194.52,377.47,199.24,377.47,199.24Z" fill="#ffbe9d"/>
        <path id="Path_16493" data-name="Path 16493" d="M381.15,190.06l.09,16.79a1.36,1.36,0,0,0,1.45,1.35h0a1.36,1.36,0,0,0,1.26-1.36v-17l-1.6-2.6Z" fill="#455a64"/>
        <path id="Path_16494" data-name="Path 16494" d="M382.33,187.29l-.44,1.01,1.03-.05Z" fill="#263238"/>
        <path id="Path_16495" data-name="Path 16495" d="M383.93,189.88a2.24,2.24,0,0,1-1.39.44,2.56,2.56,0,0,1-1.44-.25c0-.07.65.09,1.43.05S383.9,189.82,383.93,189.88Z" fill="#263238"/>
        <path id="Path_16496" data-name="Path 16496" d="M382.5,208.2a4.167,4.167,0,0,1-.05-.71c0-.58,0-1.22,0-1.93,0-1.81,0-4-.05-6.37s0-4.55,0-6.36V190.9a3.61,3.61,0,0,1,0-.71,4.994,4.994,0,0,1,0,.71c0,.58,0,1.22,0,1.93v14.66a6.87,6.87,0,0,1,.1.71Z" fill="#263238"/>
      </g>
    </g>
  </g>
</svg>
